<?xml version="1.0" encoding="utf-8"?>
<!-- Generator: Adobe Illustrator 24.1.0, SVG Export Plug-In . SVG Version: 6.00 Build 0)  -->
<svg version="1.1" id="af60385b-825f-49a8-8d1a-4022e9c91288"
	 xmlns="http://www.w3.org/2000/svg" xmlns:xlink="http://www.w3.org/1999/xlink" x="0px" y="0px" viewBox="0 0 18 18"
	 style="enable-background:new 0 0 18 18;" xml:space="preserve">
<style type="text/css">
	.st0{fill-rule:evenodd;clip-rule:evenodd;fill:#FFFFFF;}
</style>
<path class="st0" d="M0.5,6.6c0.3,0,0.5-0.2,0.5-0.5v-5h5c0.3,0,0.5-0.2,0.5-0.5C6.6,0.2,6.4,0,6.1,0H0.5C0.2,0,0,0.2,0,0.5v5.5
	C0,6.4,0.2,6.6,0.5,6.6z M3.3,6.2c0-0.3,0.2-0.5,0.5-0.5h2.7l0.8-1.1c0.1-0.1,0.3-0.2,0.4-0.2h2.6c0.2,0,0.3,0.1,0.4,0.2l0.8,1.1
	h2.6c0.3,0,0.5,0.2,0.5,0.5v6.9c0,0.3-0.2,0.5-0.5,0.5H3.8c-0.3,0-0.5-0.2-0.5-0.5V6.2z M8,5.4L7.2,6.5C7.1,6.6,6.9,6.7,6.8,6.7H4.4
	v5.8h9.2V6.7h-2.4c-0.2,0-0.3-0.1-0.4-0.2L10,5.4H8z M10.8,9.5c0,1-0.8,1.9-1.9,1.9S7,10.5,7,9.5s0.8-1.9,1.9-1.9S10.8,8.4,10.8,9.5
	z M9.7,9.5c0-0.4-0.4-0.8-0.8-0.8C8.5,8.7,8.1,9,8.1,9.5c0,0.4,0.4,0.8,0.8,0.8C9.3,10.3,9.7,9.9,9.7,9.5z M6.1,16.9h-5v-5
	c0-0.3-0.2-0.5-0.5-0.5c-0.3,0-0.5,0.2-0.5,0.5v5.5C0,17.7,0.2,18,0.5,18h5.5c0.3,0,0.5-0.2,0.5-0.5C6.6,17.2,6.4,16.9,6.1,16.9z
	 M16.9,11.9c0-0.3,0.2-0.5,0.5-0.5c0.3,0,0.5,0.2,0.5,0.5v5.5c0,0.3-0.2,0.5-0.5,0.5h-5.5c-0.3,0-0.5-0.2-0.5-0.5
	c0-0.3,0.2-0.5,0.5-0.5h5V11.9z M11.9,0h5.5C17.8,0,18,0.2,18,0.5v5.5c0,0.3-0.2,0.5-0.5,0.5c-0.3,0-0.5-0.2-0.5-0.5v-5h-5
	c-0.3,0-0.5-0.2-0.5-0.5C11.4,0.2,11.6,0,11.9,0z"/>
</svg>
