<svg id="Layer_1" data-name="Layer 1" xmlns="http://www.w3.org/2000/svg" viewBox="0 0 1024 1024"><defs><style>.cls-1{fill:none;}.cls-2{fill:#fff;fill-rule:evenodd;}</style></defs><rect width="1024" height="1024" rx="43.43"/><rect class="cls-1" x="224.76" y="225.06" width="573.94" height="573.94"/><path class="cls-2" d="M143.36,408a23.5,23.5,0,0,0,23.5-23.5V167.32H384a23.5,23.5,0,0,0,0-47H143.36a23.51,23.51,0,0,0-23.5,23.5V384.5A23.51,23.51,0,0,0,143.36,408Zm120.15-18.3A23.5,23.5,0,0,1,287,366.2H402.37l34-47.12a23.53,23.53,0,0,1,19.06-9.72H567.91a23.51,23.51,0,0,1,19,9.69l34.25,47.15H736.35a23.5,23.5,0,0,1,23.5,23.5V691.42a23.5,23.5,0,0,1-23.5,23.5H287a23.5,23.5,0,0,1-23.5-23.5Zm204-33.34-34,47.12a23.54,23.54,0,0,1-19.06,9.72H310.51V667.92H712.85V413.2H609.2a23.53,23.53,0,0,1-19-9.68l-34.26-47.16ZM589.42,532.81a82,82,0,1,1-82-82A82.14,82.14,0,0,1,589.42,532.81Zm-47,0a35,35,0,1,0-35,35.06A35.09,35.09,0,0,0,542.41,532.81ZM384,857H166.86V639.79a23.5,23.5,0,0,0-47,0V880.5a23.51,23.51,0,0,0,23.5,23.5H384a23.5,23.5,0,0,0,0-47ZM856.5,639.79a23.5,23.5,0,0,1,47,0V880.5A23.51,23.51,0,0,1,880,904H639.32a23.5,23.5,0,0,1,0-47H856.5ZM639.32,120.32H880a23.51,23.51,0,0,1,23.5,23.5V384.5a23.5,23.5,0,0,1-47,0V167.32H639.32a23.5,23.5,0,0,1,0-47Z"/></svg>